<svg xmlns="http://www.w3.org/2000/svg" viewBox="0 0 62.1 49.5"><defs><style>.cls-1{fill:#ff000f;}</style></defs><g id="Layer_2" data-name="Layer 2"><g id="Layer_1-2" data-name="Layer 1"><path class="cls-1" d="M7.7,17C17,17,27,21.2,42.1,21.2c4.5,0,5.2-1.4,5.2-3.1,0-2.5-2.4-4.2-11.9-6C29.3,11.7,27,9.5,27,5.7,27,2.1,28.9,0,32.6,0c9.8,0,10,13.3,20.3,16.4,7.3,2.5,9.2,3.9,9.2,6s-1.7,3.6-8.8,6.2c-10.9,3.7-7,20.9-20,20.9-5.3,0-8.4-3.4-8.4-9.2,0-6.2,4.3-9.1,12.8-9.3,6.9-.3,9.2-.5,9.2-3.3,0-1.7-.7-3.1-5.2-3.1-15.1,0-25,4.4-34.2,4.3C1.4,28.8,0,26.3,0,23.2,0,19.8,1.6,17,7.7,17Z"/></g></g></svg>