<svg xmlns="http://www.w3.org/2000/svg" viewBox="0 0 725.34 196.19"><defs><style>.cls-1{fill:#ff0d00;}</style></defs><g id="Layer_2" data-name="Layer 2"><g id="Layer_1-2" data-name="Layer 1"><path class="cls-1" d="M50.49,113C41.66,101.9,37.41,97.06,53,86.54,61.51,80.75,66,80,69.8,85c4.54,6.46,1.07,13.23,6.4,20.62,11.27,15.7,22.28,8.91,34.24,26.59,7.48,11.53,4.36,20-3.18,25.15s-15.48,4.06-23-7.28c-12.15-17.72.33-24.52-11.6-42.39-6.59-9.5-9.24-11.48-14-8.28-6.54,4.42-5.42,13.84.15,22.06,7.69,11.38,15.62,18,23.73,29.75,6.83,10.33,5.11,18.23-2.22,23.18S65.07,178,58.14,167.76c-8-11.83-11.09-21.73-18.78-33.11-5.57-8.22-13.89-12.76-20.54-8.27-4.73,3.2-3.88,6.4,2.6,16,12,17.8,23,8.75,35,26.54,7.62,11.27,5.63,19-1.8,24-7.66,5.19-16.72,4.91-24.52-6.39-12.08-17.61-1.68-25.3-11.94-41.68-5-7.62-12.57-6.93-16.77-13.62-3.28-5.33-1-9.2,7.71-15.06,15.43-10.44,18.34-4.69,25.48,7.56,5.68,9.62,12,14.36,18.32,10.1S57.19,121.93,50.49,113Z"/><path class="cls-1" d="M114.14,128.37c-4.87-10.79-3.93-22.25,5.86-26.67,9.05-4.09,18.5-3,26.81-6.74,5.33-2.4,9.24-6,6.16-12.78-1.95-4.34-5.42-4.41-8.52-3-6.45,2.91-10.78,9.49-21.82,14.47-6.69,3-9.23,1-11-2.5-1.13-2.18-1.91-5.56-2.73-7.72-2.17-5.14-9.22-8.52-11.66-14.58-1.72-4.15.23-7.42,4.45-9.32,9.42-4.25,12.69,6.95,11.7,19.64-.52,6.79,4.27,10.45,17.78,4.35,18-8.11,16-14.4,10.28-18.22-7.75-7.24-13.24-17.75-5.06-21.44,4.84-2.18,7.7-.79,9.8,3.19,2.78,5.16.72,14.15,3.93,20.6,8.36,17.87,19.21,16.1,25.58,30.54,6.18,14.36-1.91,26.52-21,35.14C129.81,144.57,120.07,141.51,114.14,128.37Z"/><path class="cls-1" d="M193.16,24.64c14-4,20.44-2.47,22.61,4.55,1.2,3.9,1,7.81-3.44,9.17-6.75,2.09-12.58-1.1-22.71,2-9.23,2.85-14.4,9.14-11.12,19.8,2.69,8.7,9.45,10.32,15.95,8.31,10.14-3.12,13.71-9.07,20.73-11.23,8.32-2.57,14.58,3.9,18.27,15.85,6.17,20,1.55,32.26-14.86,37.18C193.55,118.17,183,106.06,174,77,165.46,49.27,168.07,32.38,193.16,24.64Z"/><path class="cls-1" d="M298.35,47c5.67,29.93,2,45.21-23.05,49.61-24.51,4.31-33-8.83-38.28-38.7C231.94,29,236.35,12.44,259.8,8.33,283.77,4.11,293.69,18.11,298.35,47Zm-9.1-12.49C287.3,23.38,278.55,20,262.2,22.82c-15.67,2.75-23,9-21,20.13C243,53.13,251.74,56,267.68,53.2,284.16,50.31,291.06,44.81,289.25,34.5Z"/><path class="cls-1" d="M333.46,22.49c4.54.51,7.6,3.44,8.08,10.49.45,6.52-2,8.86-6.15,9.83-3.45,1.32-7.93,1.63-10.91,1.83s-7.46.65-10.91-.07c-4.39-.38-7.12-2.38-7.59-9.3s2.3-10.24,6.72-11.36c3.2-1.17,7.4-1.46,10.39-1.67C325.8,22.06,330.14,21.76,333.46,22.49Z"/><path class="cls-1" d="M398,65.55c-.33,15.5-7,23.92-23.9,23.56-19.85-.42-25.61-11.16-25.36-22.85.27-18.77,13.63-26.37,14-38.06.26-6.12-4.47-13.84-3.9-21.31.38-4.89,3.82-7,8.72-6.89,4.62.1,7.56,2.48,7.46,7.24,0,7.75-7.61,12.49-7.78,20.37-.1,10.75,3.75,15.18,8.92,15.3,4.08.08,6.82-.68,10.35-.6C394.05,42.47,398.38,49.91,398,65.55Z"/><path class="cls-1" d="M465.94,53.49C462.2,83.73,454,97.16,428.85,93.7c-24.66-3.39-28.76-18.5-24.63-48.55,4-29.1,13.24-43.48,36.82-40.24C465.16,8.22,470.32,24.58,465.94,53.49Zm-4.85-14.67c1.54-11.18-5.74-17.12-22.18-19.38-15.77-2.16-24.65,1.56-26.19,12.74-1.4,10.24,6.09,15.66,22.12,17.86C451.42,52.32,459.67,49.2,461.09,38.82Z"/><path class="cls-1" d="M518.78,21.5c14,4,18.62,8.8,16.71,15.89-1.06,3.94-3.32,7.14-7.79,5.94-6.83-1.84-10.06-7.63-20.3-10.38-9.33-2.51-17.06.06-19.95,10.83-2.36,8.8,2.5,13.77,9.06,15.53,10.25,2.76,16.44-.37,23.53,1.53,8.41,2.26,10.27,11.07,7,23.15-5.44,20.23-15.87,28.13-32.38,23.56-25.39-6.68-27.88-22.56-20-52C482.22,27.59,493.43,14.69,518.78,21.5Z"/><path class="cls-1" d="M599.9,77.49C589.56,96.76,600,107.12,593,124c-5.07,11.88-13.11,14.58-22.79,10.58s-13.7-11.71-8.75-23.65c6.45-15.58,21.12-13.33,24.2-20.74,1.3-3.14-.13-6.09-13.07-11.45s-15.91-4.24-17.22-1.09c-3.07,7.41,8.9,16.19,2.44,31.77-4.94,11.94-13.36,14.49-22.9,10.53s-13.58-11.66-8.63-23.59c6.85-16.89,21.67-16.78,28-37.72,4.18-14,9.63-23.25,32.37-13.83S606.85,64.62,599.9,77.49Zm-4.47-2c3.07-7.41-2.06-11.74-14.5-16.89s-19-5.67-22.07,1.75c-2.55,6.15,1.36,10.57,14.68,16.09S592.88,81.65,595.43,75.49Z"/><path class="cls-1" d="M635.2,147c-7,12.44-17,12.25-28.06,6.05s-16.27-14.62-9.27-27.07c11.07-19.67,29-12.7,37.14-27.16,5.53-9.84,3.71-12.42-.44-14.76-4.86-2.73-10-1.71-13.4-3.64-3.2-1.8-2.16-5.59-.76-8.08C624.15,65.66,630.94,65,650.5,76S673,93.14,669.24,99.78c-1.4,2.48-4.1,5.34-7.3,3.54-3.43-1.94-5.09-6.77-10.06-9.57-4.15-2.34-7.19-2.49-12.73,7.35C631,115.56,646.28,127.27,635.2,147Z"/><path class="cls-1" d="M645,150.25c8.86-12.39,23.64-15.59,29.15-22.68,4.43-5.86,3.74-12.76,8.87-19.11,4.63-5.89,11.63-5.33,25,4.44,16.37,11.93,19.68,18.71,15.83,24-1.2,1.65-3.84,3.43-7.47.78-5.38-3.92-6.77-9.64-16.66-16.85-5.93-4.32-11.23-5.83-15.48,0-2.64,3.62-3.24,9.07,1.59,12.6,6.82,5,13.26,4.44,20.73,9.88,4.73,3.45,5.58,6.43,2.78,10.27-2.16,3-5.66,3.62-10.28.26-5.93-4.33-8.08-13.63-14.45-18.27-4.62-3.37-8.11-2-10.83,1.7-4.72,6.48-.35,12,5.91,16.59S690.47,159,696,163c7.15,5.21,5.57,13.15-.67,21.72-9.29,12.75-20.5,14.51-38.75,1.21C639.17,173.26,637.23,160.91,645,150.25Z"/></g></g></svg>