<svg xmlns="http://www.w3.org/2000/svg" viewBox="0 0 520.6 66.1"><defs><style>.cls-1{fill:#ff1e00;}</style></defs><g id="Layer_2" data-name="Layer 2"><g id="Layer_1-2" data-name="Layer 1"><path class="cls-1" d="M42.7,15.5C41.9,5.1,41.3.4,55.1.4c7.6,0,10.6,1.4,10.9,6,.1,5.8-4.8,8.5-4.6,15.2.4,14.2,9.9,14.6,9.9,30.3-.19,10.1-5.6,14-12.3,14S47.9,62,48,52c-.1-15.8,10.3-14.8,10.4-30.6-.1-8.5-.9-10.8-5.1-10.8-5.8,0-9,6.2-9,13.5,0,10.1,2.1,17.4,2.2,27.9-.1,9.1-4.4,13.2-10.9,13.2S24.8,61.1,24.8,52c0-10.5,2.2-17.8,2.2-27.9,0-7.3-3.2-13.5-9.1-13.5-4.2,0-5,2.3-5,10.8,0,15.8,10.4,14.8,10.4,30.6,0,10-4.4,13.9-11,13.9C5.5,65.9.1,62,0,51.9-.1,36.2,9.4,35.8,9.9,21.6c.1-6.7-4.8-9.4-4.6-15.2.2-4.6,3.2-6,10.9-6C29.9.4,29.3,5.1,28.6,15.5c-.5,8.2,1.4,13.7,7,13.7S43.1,23.7,42.7,15.5Z"/><path class="cls-1" d="M74.3,49.9c0-8.7,4.1-16.1,12-16.1,7.3,0,13.3,3.6,20,3.6,4.3,0,8-1.2,8-6.7,0-3.5-2.3-4.6-4.8-4.6-5.2,0-10.1,3.1-19,3.1-5.4,0-6.5-2.1-6.6-5a58.23,58.23,0,0,1,.5-6c.1-4.1-3.6-8.5-3.4-13.3C81.1,1.6,83.4,0,86.8,0c7.6,0,6.4,8.5,1.9,16.7-2.4,4.4-.3,8.3,10.6,8.3,14.5,0,15.1-4.8,12.4-9.1-3-7.2-3.5-15.9,3.1-15.9,3.9,0,5.4,1.8,5.6,5.1.3,4.3-3.8,9.7-3.6,15,.2,14.5,8,16.6,7.9,28.2S115.4,65.5,100,65.5C79.9,65.5,74.3,60.5,74.3,49.9Z"/><path class="cls-1" d="M151.8.4c10.7.2,14.9,2.7,14.9,8.1,0,3-1,5.7-4.4,5.7-5.2,0-8.6-3.5-16.4-3.5-7.1,0-12.1,3.3-12.1,11.5,0,6.7,4.4,9.3,9.4,9.3,7.8,0,11.6-3.4,17-3.4,6.4,0,9.4,5.9,9.4,15.1,0,15.4-5.9,23-18.5,22.9C131.8,66.2,127,55.4,127,33,127,11.7,132.5.4,151.8.4Z"/><path class="cls-1" d="M218.2,32.9c.3,22.4-4.3,33-23,33-18.3,0-22.8-10.6-22.8-32.9,0-21.6,5.3-33,22.8-33C213.1,0,218.5,11.4,218.2,32.9Zm-5-10.2c0-8.3-5.9-11.9-18.1-11.9-11.7,0-17.8,3.6-17.8,11.9,0,7.6,6,10.8,17.9,10.8C207.5,33.5,213.2,30.4,213.2,22.7Z"/><path class="cls-1" d="M242.5,16.5c3.3.6,5.4,2.9,5.4,8.1,0,4.8-1.9,6.4-5,6.9a29.27,29.27,0,0,1-8.1.8,31.52,31.52,0,0,1-8-.6c-3.2-.5-5.1-2.1-5.1-7.2s2.2-7.4,5.5-8a42.15,42.15,0,0,1,15.3,0Z"/><path class="cls-1" d="M286.8,48.1c0,11.4-4.8,17.7-17.2,17.7-14.6,0-19-7.8-19-16.4-.1-13.8,9.6-19.6,9.7-28.2.1-4.5-3.5-10.1-3.2-15.6.2-3.6,2.7-5.2,6.3-5.2,3.4,0,5.6,1.7,5.6,5.2.1,5.7-5.4,9.3-5.4,15.1.1,7.9,3,11.1,6.8,11.1,3,0,5-.6,7.6-.6C283.5,31.2,286.8,36.6,286.8,48.1Z"/><path class="cls-1" d="M334,32.9c.3,22.4-4.3,33-23,33-18.3,0-22.8-10.6-22.8-32.9,0-21.6,5.3-33,22.8-33C328.9,0,334.3,11.4,334,32.9Zm-5-10.2c0-8.3-5.9-11.9-18.1-11.9-11.7,0-17.8,3.6-17.8,11.9,0,7.6,6,10.8,17.9,10.8C323.3,33.5,329,30.4,329,22.7Z"/><path class="cls-1" d="M362.4.4c10.7.2,14.9,2.7,14.9,8.1,0,3-1,5.7-4.4,5.7-5.2,0-8.6-3.5-16.4-3.5-7.1,0-12.1,3.3-12.1,11.5,0,6.7,4.4,9.3,9.4,9.3,7.8,0,11.6-3.4,17-3.4,6.4,0,9.4,5.9,9.4,15.1,0,15.4-5.9,23-18.5,22.9-19.3.1-24.1-10.7-24.1-33.1C337.6,11.7,343.1.4,362.4.4Z"/><path class="cls-1" d="M426.1,18.8c-1.6,16,8.4,20.1,8.4,33.5-.1,9.5-4.8,13.6-12.5,13.6s-12.6-4.1-12.6-13.6c0-12.4,10.6-15,10.6-20.9,0-2.5-1.8-4.1-12.1-4.1s-12,1.6-12,4.1c0,5.9,10.6,8.5,10.6,20.9,0,9.5-5,13.6-12.6,13.6s-12.5-4.1-12.5-13.6c-.1-13.4,10-17.5,8.4-33.5C388.7,8.1,389.8.3,407.9.3S427.2,8.1,426.1,18.8Zm-3.6-.1c0-5.9-4.7-7.4-14.6-7.4s-14.5,1.5-14.5,7.4c0,4.9,3.9,6.8,14.5,6.8S422.5,23.6,422.5,18.7Z"/><path class="cls-1" d="M469.2,51.4c0,10.5-6.5,14-15.8,14s-15.7-3.5-15.7-14c0-16.6,14-18.6,14-30.8,0-8.3-2.1-9.3-5.6-9.3-4.1,0-7,2.5-9.9,2.5-2.7,0-3.4-2.8-3.4-4.9,0-5.6,4.1-8.5,20.6-8.5S474,3.3,474,8.9c0,2.1-.7,4.9-3.4,4.9-2.9,0-5.7-2.5-9.9-2.5-3.5,0-5.5,1-5.5,9.3C455.2,32.8,469.2,34.8,469.2,51.4Z"/><path class="cls-1" d="M475.8,49.9c-.1-11.2,7.3-19.5,7.5-26.1.1-5.4-3.3-9.2-3-15.2.2-5.5,4.6-8.2,16.8-8.2C512,.4,516.9,3,516.9,7.8c0,1.5-.8,3.7-4.1,3.7-4.9,0-8.2-2.8-17.2-2.8-5.4,0-9.2,1.4-9.2,6.7,0,3.3,2,6.8,6.4,6.8,6.2,0,9.8-3.1,16.6-3.1,4.3,0,6.1,1.4,6.1,4.9,0,2.7-1.8,4.6-6,4.6-5.4,0-10.7-4.6-16.5-4.6-4.2,0-5.7,2.3-5.7,5.7,0,5.9,5,7.3,10.7,7.3s8.6-1.6,13.6-1.6c6.5,0,9,5.4,9,13.2,0,11.6-5.9,17.5-22.5,17.5C482.3,66.1,475.8,59.6,475.8,49.9Z"/></g></g></svg>